<?xml version="1.0" encoding="UTF-8"?>
<svg id="Layer_2" data-name="Layer 2" xmlns="http://www.w3.org/2000/svg" viewBox="0 0 77.05 19.65">
  <defs>
    <style>
      .cls-1 {
        stroke-width: 0px;
        
      }
    </style>
  </defs>
  <g id="Layer_1-2" data-name="Layer 1">
    <path class="cls-1" d="m0,7.73v-.14c.33-.1.44-.35.44-1.25V1.47C.44.58.33.33,0,.23V.09h1.77v.14c-.34.1-.44.35-.44,1.25v2.12h4.16V1.47c0-.9-.11-1.15-.44-1.25V.09h1.77v.14c-.34.1-.44.35-.44,1.25v4.87c0,.9.1,1.15.44,1.25v.14h-1.77v-.14c.33-.1.44-.35.44-1.25v-2.58H1.33v2.58c0,.9.1,1.15.44,1.25v.14H0Zm7.73,0v-.14c.31-.1.58-.32.92-1.15l2.15-5.33c.08-.2.07-.34-.02-.51l-.1-.23.82-.37,2.69,6.46c.34.82.6,1.04.83,1.14v.14h-1.69v-.14c.34-.1.25-.32-.1-1.14l-.67-1.61h-3.08l-.64,1.59c-.28.71-.24,1.07.13,1.15v.14h-1.23Zm1.81-3.05h2.95l-1.5-3.59-1.45,3.59Zm5.73,3.05v-.14c.31-.1.58-.32.92-1.15l2.15-5.33c.08-.2.07-.34-.02-.51l-.1-.23.82-.37,2.69,6.46c.34.82.6,1.04.83,1.14v.14h-1.69v-.14c.34-.1.25-.32-.1-1.14l-.67-1.61h-3.08l-.64,1.59c-.28.71-.24,1.07.13,1.15v.14h-1.23Zm1.81-3.05h2.95l-1.5-3.59-1.45,3.59Zm12.03,3.12c-.84,0-1.02-.61-1.5-1.75-.63-1.51-.72-2.27-2.03-2.27h-.7v2.56c0,.9.1,1.15.44,1.25v.14h-1.77v-.14c.34-.1.44-.35.44-1.25V1.47c0-.9-.1-1.15-.44-1.25V.09h2.15c2.22,0,2.87.73,2.87,1.7,0,1.03-.74,1.8-2.16,1.97,1.34.17,1.55.84,2.08,2.18.52,1.31.74,1.67,1.11,1.67.07,0,.12,0,.17-.01v.13c-.16.05-.45.08-.67.08Zm-4.23-4.18h.92c1.26,0,1.85-.66,1.85-1.58s-.63-1.79-2.25-1.79c-.16,0-.34.01-.51.02v3.35Zm8,4.11v-.14c.31-.1.58-.32.92-1.15l2.15-5.33c.08-.2.07-.34-.02-.51l-.1-.23.82-.37,2.69,6.46c.34.82.6,1.04.83,1.14v.14h-1.69v-.14c.34-.1.25-.32-.1-1.14l-.67-1.61h-3.08l-.64,1.59c-.28.71-.24,1.07.13,1.15v.14h-1.23Zm1.81-3.05h2.95l-1.5-3.59-1.45,3.59Zm7.22,3.05v-.14c.34-.1.44-.35.44-1.25V.26h-.54c-.98,0-1.41.26-1.78,1.05l-.12-.02.07-1.2h5.63l.07,1.2-.12.02c-.37-.79-.8-1.05-1.78-1.05h-.51v6.08c0,.9.1,1.15.44,1.25v.14h-1.78Zm5.04,0v-.14c.33-.1.44-.35.44-1.25V1.47c0-.9-.11-1.15-.44-1.25V.09h5.08l.12,1.42-.12.03c-.38-.96-1.03-1.29-2.14-1.29h-1.61v3.31h1.4c1.25,0,1.56-.25,1.69-.74h.13v1.65h-.13c-.13-.49-.45-.74-1.69-.74h-1.4v3.35c0,.32.17.49.49.49h1.42c1.05,0,1.71-.29,2.11-1.31l.12.02-.09,1.45h-5.39Zm6.98,0v-.14c.33-.1.44-.35.44-1.25V1.47c0-.9-.11-1.15-.44-1.25V.09h1.77v.14c-.34.1-.44.35-.44,1.25v5.59c0,.32.17.49.49.49h1.3c1.05,0,1.53-.26,1.91-1.08l.12.02-.08,1.23h-5.08Zm6.48,0v-.14c.33-.1.44-.35.44-1.25V1.47c0-.9-.11-1.15-.44-1.25V.09h1.77v.14c-.34.1-.44.35-.44,1.25v4.87c0,.9.1,1.15.44,1.25v.14h-1.77Zm3.43,0v-.14c.33-.1.44-.35.44-1.25V1.47c0-.9-.11-1.15-.44-1.25V.09h5.08l.12,1.42-.12.03c-.38-.96-1.03-1.29-2.14-1.29h-1.61v3.31h1.4c1.25,0,1.56-.25,1.69-.74h.13v1.65h-.13c-.13-.49-.45-.74-1.69-.74h-1.4v3.35c0,.32.17.49.49.49h1.42c1.05,0,1.72-.29,2.11-1.31l.12.02-.09,1.45h-5.39Zm12.54.08c-.84,0-1.02-.61-1.5-1.75-.63-1.51-.72-2.27-2.03-2.27h-.7v2.56c0,.9.1,1.15.44,1.25v.14h-1.77v-.14c.34-.1.44-.35.44-1.25V1.47c0-.9-.1-1.15-.44-1.25V.09h2.15c2.22,0,2.87.73,2.87,1.7,0,1.03-.74,1.8-2.16,1.97,1.34.17,1.55.84,2.07,2.18.52,1.31.74,1.67,1.11,1.67.07,0,.12,0,.17-.01v.13c-.16.05-.45.08-.67.08Zm-4.23-4.18h.92c1.26,0,1.85-.66,1.85-1.58s-.63-1.79-2.25-1.79c-.16,0-.34.01-.51.02v3.35Z"/>
    <path class="cls-1" d="m22.56,15.99v-.09c.19-.06.36-.2.57-.71l1.33-3.29c.05-.12.04-.21-.01-.32l-.06-.14.51-.23,1.66,3.99c.21.51.37.64.51.7v.09h-1.05v-.09c.21-.06.16-.2-.06-.7l-.41-.99h-1.9l-.4.99c-.18.44-.15.66.08.71v.09h-.76Zm1.12-1.88h1.82l-.92-2.22-.9,2.22Zm3.66,1.88v-.09c.2-.06.27-.22.27-.77v-3.01c0-.55-.07-.71-.27-.77v-.09h1.09v.09c-.21.06-.27.22-.27.77v3.46c0,.2.11.3.3.3h.8c.65,0,.95-.16,1.18-.67h.07s-.05.78-.05.78h-3.14Zm3.67,0v-.09c.2-.06.27-.22.27-.77v-3.01c0-.55-.07-.71-.27-.77v-.09h1.09v.09c-.21.06-.27.22-.27.77v1.71l1.77-1.81c.43-.44.49-.66.22-.7v-.06h.94v.09c-.22.06-.5.13-.88.53l-1.44,1.47h.16c1.01-.07,1.16.29,1.62,1.44.34.86.49,1.1.71,1.1.04,0,.07,0,.11,0v.09c-.11.03-.26.05-.41.05-.49,0-.61-.29-.94-1.08-.45-1.09-.55-1.51-1.23-1.49h-.14l-.5.51v1.16c0,.55.06.71.27.77v.09h-1.09Zm4.31,0v-.09c.21-.06.27-.22.27-.77v-2.74c0-.77-.14-.96-.41-1.04v-.09h.82l1.76,2.91,1.73-2.91h.76v.09c-.27.08-.41.27-.41,1.04v2.74c0,.55.06.71.27.77v.09h-1.09v-.09c.2-.06.27-.22.27-.77v-3.32l-1.71,2.9h-.13l-1.73-2.84v3c0,.77.16.96.46,1.04v.09h-.85Zm5.16,0v-.09c.19-.06.36-.2.57-.71l1.33-3.29c.05-.12.04-.21-.01-.32l-.06-.14.51-.23,1.66,3.99c.21.51.37.64.51.7v.09h-1.05v-.09c.21-.06.16-.2-.06-.7l-.41-.99h-1.9l-.4.99c-.18.44-.15.66.08.71v.09h-.76Zm1.12-1.88h1.82l-.92-2.22-.9,2.22Zm3.2,1.88v-.09c.19-.06.36-.2.57-.71l1.33-3.29c.05-.12.04-.21-.01-.32l-.06-.14.51-.23,1.66,3.99c.21.51.37.64.51.7v.09h-1.05v-.09c.21-.06.16-.2-.06-.7l-.41-.99h-1.9l-.4.99c-.18.44-.15.66.08.71v.09h-.76Zm1.12-1.88h1.82l-.92-2.22-.9,2.22Zm7.1,1.93c-.52,0-.63-.38-.93-1.08-.39-.93-.45-1.4-1.26-1.4h-.43v1.58c0,.55.06.71.27.77v.09h-1.09v-.09c.21-.06.27-.22.27-.77v-3.01c0-.55-.06-.71-.27-.77v-.09h1.33c1.37,0,1.78.45,1.78,1.05,0,.63-.46,1.11-1.34,1.22.83.11.96.52,1.28,1.35.32.81.46,1.03.69,1.03.04,0,.07,0,.11,0v.08c-.1.03-.28.05-.41.05Zm-2.61-2.59h.57c.78,0,1.14-.41,1.14-.98s-.39-1.11-1.39-1.11c-.1,0-.21,0-.32.01v2.07Z"/>
    <path class="cls-1" d="m32.79,19.63v-.03c.08-.02.1-.08.1-.29v-1.15c0-.21-.03-.27-.1-.29v-.03h1.2l.03.34h-.03c-.09-.22-.24-.3-.51-.3h-.38v.78h.33c.29,0,.37-.06.4-.18h.03v.39h-.03c-.03-.12-.11-.18-.4-.18h-.33v.79c0,.07.04.12.12.12h.34c.25,0,.4-.07.5-.31h.03s-.02.35-.02.35h-1.27Zm2.12.03c-.27,0-.5-.1-.62-.18v-.36s.02,0,.02,0c.1.27.3.5.65.5.21,0,.38-.13.38-.34,0-.26-.32-.38-.53-.46-.3-.12-.5-.23-.5-.5,0-.3.25-.49.63-.49.23,0,.4.06.5.12v.3s-.02,0-.02,0c-.1-.22-.28-.38-.57-.38-.21,0-.39.12-.39.34,0,.24.27.34.48.43.29.11.55.23.55.52,0,.32-.3.52-.6.52Zm1.2-.03v-.03c.08-.02.1-.08.1-.29v-1.44h-.13c-.23,0-.33.06-.42.25h-.03s.02-.29.02-.29h1.33l.02.28h-.03c-.09-.18-.19-.24-.42-.24h-.12v1.44c0,.21.02.27.1.29v.03h-.42Zm1.48-.04c.36-.34.88-.83.88-1.31,0-.21-.13-.35-.33-.35-.13,0-.27.06-.38.18l-.02-.02c.14-.17.31-.29.54-.29s.42.15.42.42c0,.49-.6.96-.91,1.24h.59c.26,0,.31-.05.36-.19h.03s-.04.36-.04.36h-1.13v-.04Zm2.16.06c-.37,0-.79-.3-.79-.93,0-.56.38-.92.78-.92.37,0,.79.3.79.93,0,.56-.38.92-.77.92Zm-.59-1.09c0,.52.26,1.04.68,1.04.31,0,.47-.3.47-.71,0-.52-.26-1.04-.67-1.04-.32,0-.48.3-.48.71Zm1.39,1.03c.36-.34.88-.83.88-1.31,0-.21-.13-.35-.33-.35-.13,0-.27.06-.38.18l-.02-.02c.14-.17.31-.29.54-.29s.42.15.42.42c0,.49-.6.96-.91,1.24h.59c.26,0,.31-.05.36-.19h.03s-.04.36-.04.36h-1.13v-.04Zm1.44.04v-.03c.1-.02.12-.08.12-.29v-1.26l-.23.1v-.02s.42-.3.42-.3h.02v1.49c0,.21.03.27.12.29v.03h-.46Z"/>
  </g>
</svg>