<?xml version="1.0" encoding="UTF-8"?><svg id="Layer_2" xmlns="http://www.w3.org/2000/svg" viewBox="0 0 535.54 286.91"><defs><style>.cls-1{fill:#a9a487;}.cls-2{fill:#5a3217;}</style></defs><g id="Ebene_1"><g><path class="cls-2" d="m54.56,154.09h-7.11v52.75c0,4.75.4,9.2.4,9.2h-.21l-36.9-61.96H1.1v75.2h7.11v-54.98c0-4.77-.39-10.21-.39-10.21h.18l38.8,65.19h7.76v-75.2Z"/><path class="cls-2" d="m109.02,205.1h-19.58l7.83-24.93c1.62-5.16,2.01-7.93,2.01-7.93h.19s.29,2.77,1.91,7.93l7.64,24.93Zm16.71,24.93l-22.16-65.71h-7.83l-22.25,65.71h8.02l6.4-19.68h22.54l6.21,19.68h9.07Z"/><polygon class="cls-2" points="174.92 170.23 174.92 164.31 139.96 164.31 139.96 170.23 153.05 170.23 153.05 230.03 161.83 230.03 161.83 170.23 174.92 170.23"/><path class="cls-2" d="m235.64,211.31v-46.99h-8.02v46.9c0,8.31-5.63,12.99-12.03,12.99s-12.13-4.68-12.13-12.99v-46.9h-8.79v46.99c0,11.18,7.93,19.77,20.44,19.77s20.53-8.59,20.53-19.77"/><polygon class="cls-2" points="288.72 230.03 288.72 224.1 268.95 224.1 268.95 164.31 260.16 164.31 260.16 230.03 288.72 230.03"/><rect class="cls-2" x="308.95" y="164.31" width="8.79" height="65.71"/><path class="cls-2" d="m450.68,211.31v-46.99h-8.02v46.9c0,8.31-5.63,12.99-12.03,12.99s-12.13-4.68-12.13-12.99v-46.9h-8.79v46.99c0,11.18,7.93,19.77,20.44,19.77s20.53-8.59,20.53-19.77"/><polygon class="cls-2" points="510.94 223.85 485.65 223.85 485.65 193.08 508.38 193.08 508.38 187.75 485.65 187.75 485.65 159.53 510.94 159.53 510.94 154.09 476.87 154.09 476.87 229.29 510.94 229.29 510.94 223.85"/><path class="cls-2" d="m374.82,218.02c3.21-5.42,4.04-13.59,4.04-21.33,0-13.28-2.58-27.51-14.9-27.51s-14.9,14.23-14.9,27.51,2.29,27.6,14.9,27.6c2.13,0,3.96-.42,5.54-1.17,2.26-1.08,3.99-2.85,5.32-5.1m4.72,6.14c9.09,9.21,21.47,10.77,21.47,10.77,0,0-10.25,4.04-24.31-5.48-.65-.44-1.27-.89-1.86-1.33l-4.87,1.8c-2.29.57-3.92.76-6.02.76-17.1,0-23.78-15-23.78-33.62s6.68-33.72,23.78-33.72,23.68,15.09,23.68,33.72c0,10.93-2.3,20.59-8.1,27.09"/></g><path class="cls-2" d="m527.1,142.75c0,1.96-1.54,2.61-3.23,2.61h-1.14v-4.76c.37-.15.89-.24,1.38-.24,1.35,0,2.98.52,2.98,2.4m2.03,9.55l-4.36-6.02c2.18-.12,3.81-1.32,3.81-3.5,0-2.43-2-3.63-4.27-3.63-1.13,0-2.21.22-3.01.62v12.53h1.44v-5.93h.46l4.21,5.93h1.72Zm5.1-6.27c0,5.25-4.27,9.53-9.55,9.53s-9.52-4.27-9.52-9.53,4.27-9.55,9.52-9.55,9.55,4.3,9.55,9.55m1.32,0c0-6.02-4.88-10.88-10.87-10.88s-10.84,4.86-10.84,10.88,4.85,10.85,10.84,10.85,10.87-4.85,10.87-10.85"/><path class="cls-1" d="m282.95,21.61s.97-8.24,3.28-10.4c2.3-2.17,10.91-7.84,17.16-9.14,6.27-1.31,5.5-1.41,6.44-2.02.93-.61-.26,3.37,1.08,5.65,1.34,2.27-3.64,9.43-5.28,10.65-1.65,1.22-14.94,3.37-18.17,5.89-3.24,2.52-8.56,14.78-8.75,15.09-.19.32-7.31,16.22-9.34,24.64,0,0,2.64,2.68,5.43-3.96,2.8-6.63,3-20.53,11.52-26.05,8.51-5.52,19.23-7.74,22.14-6.88,2.9.85,8.68,1.51,8.96,3.52.28,2-3.5,15.49-5.58,17.1-2.09,1.6-11.46,9.52-30.85,16.55-19.37,7.02-20.92,16.27-20.92,16.27,0,0-2.65,7.93-3.08,9.12-.44,1.19,14.72-20.79,32.45-23.77,17.71-2.98,25.05,0,28.35,7.01,0,0,.21,2.18-1.11,3.08-1.33.9-7.27,19.03-25.19,18.12-17.92-.92-15.94-.84-19.23-2.3-3.28-1.46-3.99-2.27-6.52-1.38-2.53.89-9.81,3.28-11.15,5.33-.78,1.18-2.14,2.69-3.5,4.52,1.15-.33,2.35-.36,3.5-.03,3.87,1.13,5.76,5.95,4.22,10.75-1.55,4.8-5.93,7.79-9.8,6.65-2.11-.61-3.63-2.33-4.33-4.54-1.75,4.19-3.56,8.79-4.42,11.79-1.55,5.41-2.87,10.72-3.48,11.29-.61.56-3.51,2.48-6.52-1.38,0,0,1.96-10.44,9.57-21.52,0,0,3.67-6.82,6.52-15.83,0,0-3.54-5.18-6.22-6.64-2.68-1.46-14.01-7.85-18.96-21.9,0,0-2.8-1.69,7.59-26.01,0,0,1.76-7.64,14.98,6.83,13.22,14.47,6.29,29.21,5.48,31.44-.79,2.22-2.88,6.32-1.46,8.51,1.41,2.18,2.25,2.65,2.25,2.65,0,0,8.37-20.97,12.27-27.33.4-.65.8-1.33,1.19-2.02-3.3,1.51-6.89,1.28-8.99-.86-2.75-2.82-1.87-7.89,1.98-11.31,3.86-3.43,9.21-3.92,11.98-1.1.39.4.71.85.95,1.32.49-1.21.78-2.06.78-2.36,0-1.15-.22-2.75-1.65-3.22-1.43-.47-12.76-1.89-14.3-14.26-1.55-12.36,1.3-15.25.77-17.15-.52-1.89-3.84-5.47,2.45-5.12,6.29.34,17.13,1.41,22.05,19.48,0,0,1.01,1.1,1.8-.55.81-1.66,1.64-4.24,1.64-4.24"/></g><g id="Layer_2-2"><g><path class="cls-2" d="m10.12,286.87c-6.47,0-10.12-6.24-10.12-13.88s3.61-13.88,10.12-13.88c2.39,0,4.08.63,5.25,1.49l-.86,2.12c-.82-.51-2.08-1.06-3.76-1.06-5.18,0-6.98,5.61-6.98,11.33s2,11.18,6.94,11.18c1.65,0,2.75-.43,3.76-1.06l.94,2.27c-1.18.9-3.1,1.49-5.29,1.49Z"/><path class="cls-2" d="m23.02,286.48v-26.98h12.51v2.43h-8.9v9.41h8v2.39h-8v10.31h8.9v2.43h-12.51Z"/><path class="cls-2" d="m56.32,286.48l-8.86-12.59h-.08v12.59h-3.57v-25.92c1.41-.78,3.8-1.45,6.71-1.45,6.12,0,9.25,2.98,9.25,8,0,4.59-3.25,7.33-8.2,7.41v.08l8.82,11.88h-4.08Zm-5.88-25.25c-1.33,0-2.35.2-3.06.59v11.29c.39.12,1.37.24,2.31.24,4.39,0,6.51-2.2,6.51-6.08,0-4.12-1.8-6.04-5.76-6.04Z"/><path class="cls-2" d="m75.06,261.93v24.55h-3.61v-24.55h-5.37v-2.43h14.35v2.43h-5.37Z"/><path class="cls-2" d="m88.12,286.48v-26.98h3.61v26.98h-3.61Z"/><path class="cls-2" d="m104.91,261.93v9.41h7.96v2.39h-7.96v12.75h-3.61v-26.98h12.47v2.43h-8.86Z"/><path class="cls-2" d="m121.81,286.48v-26.98h3.61v26.98h-3.61Z"/><path class="cls-2" d="m134.99,286.48v-26.98h12.51v2.43h-8.9v9.41h8v2.39h-8v10.31h8.9v2.43h-12.51Z"/><path class="cls-2" d="m162.84,286.87c-3.1,0-5.73-.63-7.14-1.45v-24.82c1.57-.86,4.04-1.49,6.98-1.49,7.45,0,11.22,5.25,11.22,13.61s-3.41,14.16-11.06,14.16Zm-.24-25.45c-1.41,0-2.39.16-3.33.55v21.84c.78.31,2,.51,3.37.51,5.45,0,7.53-4.04,7.53-11.65s-2.43-11.25-7.57-11.25Z"/><path class="cls-2" d="m205.47,286.87c-7.02,0-9.76-6.16-9.76-13.88s2.75-13.88,9.76-13.88,9.73,6.24,9.73,13.88-2.75,13.88-9.73,13.88Zm0-25.37c-4.94,0-6.12,5.92-6.12,11.37s1.02,11.33,6.12,11.33,6.08-5.88,6.08-11.33-1.18-11.37-6.08-11.37Z"/><path class="cls-2" d="m236.3,286.48l-8.86-12.59h-.08v12.59h-3.57v-25.92c1.41-.78,3.8-1.45,6.71-1.45,6.12,0,9.25,2.98,9.25,8,0,4.59-3.25,7.33-8.2,7.41v.08l8.82,11.88h-4.08Zm-5.88-25.25c-1.33,0-2.35.2-3.06.59v11.29c.39.12,1.37.24,2.31.24,4.39,0,6.51-2.2,6.51-6.08,0-4.12-1.8-6.04-5.76-6.04Z"/><path class="cls-2" d="m258.57,286.87c-6.27,0-11.33-4.55-11.33-14.08,0-8.98,5.18-13.69,11.33-13.69,2.94,0,5.02.59,6.31,1.41l-1.06,2.23c-.9-.55-2.47-1.1-4.86-1.1-4.98,0-8,3.61-8,11.45,0,7.33,3.33,11.25,7.57,11.25,1.84,0,2.82-.31,3.37-.63v-10.12h-4.59v-2.27h8.08v14.04c-1.65.94-3.45,1.49-6.82,1.49Z"/><path class="cls-2" d="m290.03,286.48l-2.55-8.08h-9.25l-2.63,8.08h-3.29l9.14-26.98h3.22l9.1,26.98h-3.72Zm-6.27-20.47c-.67-2.12-.79-3.25-.79-3.25h-.08s-.16,1.14-.82,3.25l-3.22,10.24h8.04l-3.14-10.24Z"/><path class="cls-2" d="m317.09,286.48l-11.49-19.69c-.98-1.69-1.73-3.25-1.73-3.25h-.08s.12,1.65.12,3.33v19.61h-3.02v-26.98h3.8l11.02,18.94c.98,1.65,1.53,2.86,1.53,2.86h.08s-.12-1.29-.12-2.98v-18.82h3.02v26.98h-3.14Z"/><path class="cls-2" d="m329.76,286.48v-26.98h3.61v26.98h-3.61Z"/><path class="cls-2" d="m352.15,286.87c-6.47,0-10.12-6.24-10.12-13.88s3.61-13.88,10.12-13.88c2.39,0,4.08.63,5.25,1.49l-.86,2.12c-.82-.51-2.08-1.06-3.76-1.06-5.18,0-6.98,5.61-6.98,11.33s2,11.18,6.94,11.18c1.65,0,2.75-.43,3.76-1.06l.94,2.27c-1.18.9-3.1,1.49-5.29,1.49Z"/><path class="cls-2" d="m386.63,286.87c-3.06,0-5.65-.55-7.37-1.49v-24.78c1.49-.86,4.08-1.49,7.02-1.49,5.92,0,9.1,2.82,9.1,6.75s-2.82,5.8-5.25,6.27v.08c2.51.47,6.27,2.86,6.27,6.98,0,5.41-4.2,7.69-9.76,7.69Zm-.39-25.69c-1.41,0-2.47.2-3.57.59v9.61h1.76c5.57,0,7.45-1.73,7.45-5.25,0-3.29-1.96-4.94-5.65-4.94Zm-1.76,12h-1.8v10.75c1.02.43,2.16.63,3.8.63,3.53,0,6.27-1.41,6.27-5.33,0-4.2-2.43-6.04-8.27-6.04Z"/><path class="cls-2" d="m404.67,286.48v-26.98h12.51v2.43h-8.9v9.41h8v2.39h-8v10.31h8.9v2.43h-12.51Z"/><path class="cls-2" d="m440.09,286.48l-2.55-8.08h-9.25l-2.63,8.08h-3.29l9.14-26.98h3.22l9.1,26.98h-3.72Zm-6.27-20.47c-.67-2.12-.79-3.25-.79-3.25h-.08s-.16,1.14-.82,3.25l-3.22,10.24h8.04l-3.14-10.24Z"/><path class="cls-2" d="m458.95,286.91c-5.14,0-8.39-3.53-8.39-8.12v-19.29h3.61v19.25c0,3.41,2.31,5.33,4.98,5.33s4.94-1.92,4.94-5.33v-19.25h3.29v19.29c0,4.59-3.25,8.12-8.43,8.12Z"/><path class="cls-2" d="m483.94,261.93v24.55h-3.61v-24.55h-5.37v-2.43h14.35v2.43h-5.37Z"/><path class="cls-2" d="m505.47,274.52v11.96h-3.61v-11.96l-7.33-15.02h3.88l5.37,12.2h.08l5.57-12.2h3.45l-7.41,15.02Z"/></g></g></svg>